<?xml version="1.0" standalone="no"?>
<!DOCTYPE svg PUBLIC "-//W3C//DTD SVG 20010904//EN"
 "http://www.w3.org/TR/2001/REC-SVG-20010904/DTD/svg10.dtd">
<svg version="1.0" xmlns="http://www.w3.org/2000/svg"
 width="1254.000000pt" height="1254.000000pt" viewBox="0 0 1254.000000 1254.000000"
 preserveAspectRatio="xMidYMid meet">

<g transform="translate(0.000000,1254.000000) scale(0.100000,-0.100000)"
fill="#000000" stroke="none">
<path d="M6065 9559 c-266 -27 -444 -72 -705 -176 -172 -69 -511 -259 -563
-315 -4 -4 -4 -6 -1 -3 4 3 13 0 21 -6 10 -9 19 -7 38 5 44 29 252 135 342
175 168 73 505 183 519 168 3 -3 -31 -14 -75 -26 -135 -37 -339 -116 -328
-127 3 -4 26 3 50 15 24 11 52 21 63 21 10 0 32 7 48 15 38 20 90 20 82 0 -7
-19 -17 -20 109 10 59 14 109 24 112 22 2 -3 -16 -10 -41 -16 -68 -17 -71 -35
-5 -26 41 5 51 4 43 -5 -6 -6 -35 -13 -64 -16 -30 -2 -56 -8 -60 -13 -3 -6
-18 -15 -34 -21 -58 -22 -18 -18 74 7 52 14 113 27 135 29 22 2 -7 -9 -65 -24
-132 -36 -148 -43 -82 -35 59 6 65 0 21 -22 -47 -25 -31 -26 51 -5 41 11 82
19 90 19 8 0 -32 -14 -90 -30 -150 -41 -222 -67 -188 -68 20 -1 26 -5 22 -16
-8 -19 -10 -19 80 10 95 31 212 58 229 52 6 -2 -6 -7 -28 -11 -22 -4 -77 -18
-123 -32 -65 -20 -81 -28 -73 -38 9 -10 40 -5 158 25 82 21 159 38 173 38 14
-1 -24 -13 -85 -28 -152 -38 -241 -65 -370 -113 -103 -38 -205 -84 -205 -92 0
-8 63 5 90 19 111 58 577 191 597 171 3 -3 -3 -6 -13 -6 -40 0 -352 -92 -464
-137 -389 -154 -723 -399 -979 -717 -118 -148 -191 -264 -277 -442 -57 -119
-155 -385 -153 -417 0 -7 22 53 49 132 141 419 388 777 723 1049 284 229 589
377 992 481 66 17 129 31 140 30 11 0 -47 -18 -128 -39 -329 -84 -562 -189
-833 -371 -190 -128 -437 -372 -573 -566 -37 -54 -16 -37 26 19 112 155 308
350 476 477 122 92 329 212 477 278 114 51 302 115 370 127 44 7 27 1 -126
-47 -143 -45 -346 -138 -477 -218 -117 -72 -257 -170 -278 -195 -8 -10 27 12
76 48 219 160 456 279 720 364 112 36 165 48 210 48 42 -1 54 2 40 8 -16 6
-13 7 10 4 17 -2 43 -2 60 1 25 6 26 7 10 13 -11 4 30 6 90 5 61 -1 102 1 92
4 -32 12 385 13 498 1 288 -28 585 -105 811 -210 83 -38 115 -47 52 -14 -18
10 -28 19 -21 21 7 2 20 0 31 -6 21 -11 65 -4 56 10 -3 5 2 6 10 3 9 -3 13
-11 9 -17 -3 -6 -1 -7 5 -3 17 10 69 -20 75 -43 3 -11 0 -22 -6 -24 -6 -2 -3
-6 7 -10 10 -4 15 -3 11 3 -3 6 -2 10 4 10 5 0 13 -4 16 -10 3 -5 13 -10 22
-10 13 0 13 3 2 18 -11 14 -11 15 1 4 8 -7 15 -25 15 -40 0 -19 5 -27 18 -26
9 1 17 -3 17 -9 0 -5 8 -16 18 -24 13 -10 9 -10 -15 2 -54 26 -47 17 24 -32
103 -70 167 -119 246 -185 66 -56 68 -58 27 -14 -25 26 -69 65 -97 88 -29 22
-50 44 -47 49 3 5 -1 6 -8 4 -7 -3 -29 8 -48 25 -32 28 -33 30 -10 24 l25 -7
-20 23 -20 23 23 -12 c33 -18 36 -9 7 19 -14 13 -25 29 -25 36 0 18 -83 88
-145 123 -30 17 -57 40 -61 53 -3 12 -18 31 -33 42 -14 11 -64 57 -111 101
-77 74 -232 182 -287 199 -11 4 -27 14 -35 23 -11 14 -9 15 19 11 41 -6 30 9
-29 39 -73 36 -192 90 -216 97 -16 6 -21 13 -18 30 4 20 -3 27 -42 45 -61 27
-271 76 -392 90 -97 11 -363 32 -390 30 -8 -1 -96 -10 -195 -20z m-298 -145
c-3 -3 -12 -4 -19 -1 -8 3 -5 6 6 6 11 1 17 -2 13 -5z m-87 -74 c-22 -17 -80
-28 -80 -15 0 10 56 34 80 34 l25 1 -25 -20z m190 -100 c-8 -5 -28 -9 -45 -9
-29 1 -29 1 -5 9 14 4 34 8 45 9 16 1 17 -1 5 -9z m67 -16 c-3 -3 -12 -4 -19
-1 -8 3 -5 6 6 6 11 1 17 -2 13 -5z m-50 -10 c-3 -3 -12 -4 -19 -1 -8 3 -5 6
6 6 11 1 17 -2 13 -5z m-137 -64 c-8 -5 -24 -9 -35 -9 -16 1 -16 2 5 9 35 11
48 11 30 0z m323 -47 c-7 -2 -19 -2 -25 0 -7 3 -2 5 12 5 14 0 19 -2 13 -5z
m170 0 c-7 -2 -21 -2 -30 0 -10 3 -4 5 12 5 17 0 24 -2 18 -5z m1047 -43 c20
-6 21 -8 5 -8 -11 0 -29 3 -40 8 -25 11 1 11 35 0z m-1193 -16 c-3 -3 -12 -4
-19 -1 -8 3 -5 6 6 6 11 1 17 -2 13 -5z m-40 -10 c-3 -3 -12 -4 -19 -1 -8 3
-5 6 6 6 11 1 17 -2 13 -5z m-57 -14 c-14 -4 -34 -8 -45 -8 -16 0 -15 2 5 8
14 4 34 8 45 8 16 0 15 -2 -5 -8z m1590 -170 c8 -5 11 -10 5 -10 -5 0 -17 5
-25 10 -8 5 -10 10 -5 10 6 0 17 -5 25 -10z m75 -18 c-3 -3 -11 0 -18 7 -9 10
-8 11 6 5 10 -3 15 -9 12 -12z"/>
<path d="M7125 9420 c3 -5 11 -10 16 -10 6 0 7 5 4 10 -3 6 -11 10 -16 10 -6
0 -7 -4 -4 -10z"/>
<path d="M5635 9290 c-13 -6 -15 -9 -5 -9 8 0 22 4 30 9 18 12 2 12 -25 0z"/>
<path d="M5548 9263 c7 -3 16 -2 19 1 4 3 -2 6 -13 5 -11 0 -14 -3 -6 -6z"/>
<path d="M5420 9250 c-13 -9 -13 -10 0 -10 8 0 22 5 30 10 13 9 13 10 0 10 -8
0 -22 -5 -30 -10z"/>
<path d="M5330 9214 c-25 -13 -34 -22 -21 -18 35 9 91 33 91 39 0 11 -27 3
-70 -21z"/>
<path d="M5528 9203 c7 -3 16 -2 19 1 4 3 -2 6 -13 5 -11 0 -14 -3 -6 -6z"/>
<path d="M5585 9155 c-39 -18 -11 -18 35 0 22 8 28 13 15 13 -11 0 -33 -6 -50
-13z"/>
<path d="M5455 9081 c-22 -11 -36 -20 -32 -20 12 -1 77 27 77 33 0 8 0 8 -45
-13z"/>
<path d="M5553 9058 c-18 -6 -33 -17 -33 -24 0 -7 -9 -16 -20 -19 -11 -3 -20
-10 -20 -15 0 -9 26 -3 45 10 6 4 23 10 39 14 21 5 26 10 17 15 -9 6 -5 10 13
13 14 3 26 2 26 -2 0 -5 10 -6 22 -2 21 5 21 6 2 13 -25 10 -52 9 -91 -3z"/>
<path d="M4735 9028 c-91 -73 -155 -131 -150 -136 3 -3 -23 -35 -57 -71 -39
-41 -46 -50 -18 -25 25 22 69 60 99 84 29 24 48 46 42 48 -8 3 -5 12 10 28 25
27 49 33 28 7 -13 -15 -12 -15 8 -4 13 6 22 17 20 24 -1 7 10 13 25 15 32 4
61 32 33 32 -14 0 -15 3 -5 15 19 22 9 18 -35 -17z m-110 -118 c-10 -11 -23
-20 -28 -20 -6 0 -2 9 8 20 10 11 23 20 28 20 6 0 2 -9 -8 -20z"/>
<path d="M5370 8980 c-8 -5 -10 -10 -5 -10 6 0 17 5 25 10 8 5 11 10 5 10 -5
0 -17 -5 -25 -10z"/>
<path d="M4800 8970 c-8 -5 -11 -12 -7 -16 4 -4 13 -2 19 4 15 15 7 24 -12 12z"/>
<path d="M5400 8970 c-13 -8 -13 -10 2 -10 9 0 20 5 23 10 8 13 -5 13 -25 0z"/>
<path d="M6190 8942 l-95 -17 210 -6 c124 -4 251 -14 310 -24 416 -72 828
-253 1151 -507 58 -46 114 -87 125 -93 10 -5 19 -15 19 -21 0 -6 11 -17 25
-24 14 -7 25 -16 25 -20 0 -3 24 -31 53 -61 28 -30 86 -95 129 -146 42 -50 79
-89 82 -86 3 4 6 2 6 -4 0 -6 7 -14 16 -17 19 -7 14 1 -43 76 -57 75 -279 304
-318 328 -16 10 -52 39 -79 64 -54 51 -227 168 -351 238 -310 174 -668 284
-1009 308 -82 6 -152 13 -155 16 -10 11 235 -4 359 -21 356 -49 766 -218 1105
-454 67 -47 145 -87 145 -75 0 10 -209 155 -320 221 -176 106 -507 238 -723
288 -209 48 -510 65 -667 37z"/>
<path d="M6870 8924 c243 -53 587 -189 772 -308 81 -51 111 -64 132 -57 33 13
-198 142 -402 226 -186 76 -518 167 -596 164 -11 0 31 -12 94 -25z"/>
<path d="M7065 8920 c124 -32 250 -77 405 -144 58 -25 113 -46 123 -46 10 0
16 -4 13 -8 -5 -8 55 -42 74 -42 6 0 18 -7 28 -16 24 -22 231 -154 241 -154 4
0 18 -11 31 -25 13 -14 29 -25 36 -25 28 0 356 -348 437 -465 15 -21 21 -24
33 -14 18 15 51 -13 101 -89 20 -29 38 -51 40 -48 7 7 -109 177 -166 246 -360
428 -828 717 -1352 834 -154 34 -183 32 -44 -4z"/>
<path d="M5285 8930 c27 -12 43 -12 25 0 -8 5 -22 9 -30 9 -10 0 -8 -3 5 -9z"/>
<path d="M6278 8893 c12 -2 32 -2 45 0 12 2 2 4 -23 4 -25 0 -35 -2 -22 -4z"/>
<path d="M6400 8890 c0 -5 26 -11 58 -14 100 -10 334 -57 427 -87 196 -62 408
-149 518 -212 300 -172 536 -378 745 -651 33 -43 71 -85 84 -94 22 -16 22 -15
8 3 -8 11 -17 22 -20 25 -3 3 -26 34 -52 70 -25 36 -56 76 -70 90 -13 14 -52
57 -86 97 -70 79 -213 208 -343 306 -247 188 -566 339 -877 416 -159 39 -392
70 -392 51z"/>
<path d="M5265 8870 c-3 -5 3 -10 14 -10 12 0 21 5 21 10 0 6 -6 10 -14 10 -8
0 -18 -4 -21 -10z"/>
<path d="M6098 8861 c-117 -13 -65 -21 138 -23 115 0 216 -1 224 0 22 1 303
-56 369 -75 31 -8 115 -37 186 -62 72 -26 158 -57 193 -69 79 -26 270 -139
398 -235 233 -173 427 -375 574 -597 52 -78 49 -74 55 -68 8 7 -138 211 -222
310 -170 201 -457 429 -698 554 -115 60 -346 153 -469 189 -233 67 -539 98
-748 76z"/>
<path d="M6013 8821 c-34 -3 -68 -12 -74 -18 -10 -10 31 -11 197 -6 325 9 533
-19 791 -108 169 -58 283 -118 563 -295 19 -12 18 -10 -5 10 -50 44 -264 177
-370 231 -161 81 -378 147 -580 175 -89 13 -426 19 -522 11z"/>
<path d="M5445 8800 c-3 -6 1 -7 9 -4 18 7 21 14 7 14 -6 0 -13 -4 -16 -10z"/>
<path d="M5994 8780 c-45 -4 -87 -10 -93 -14 -7 -4 -37 -10 -69 -13 -53 -4
-120 -29 -109 -39 3 -3 34 1 69 10 180 42 547 50 768 17 314 -47 646 -182 909
-369 35 -25 61 -40 57 -33 -15 23 -265 181 -379 239 -199 101 -453 175 -692
202 -100 11 -336 11 -461 0z"/>
<path d="M5065 8753 c-23 -13 -26 -18 -13 -21 20 -4 58 14 58 28 0 14 -10 12
-45 -7z"/>
<path d="M6015 8739 c-112 -11 -234 -35 -275 -54 -34 -16 -34 -16 -5 -11 205
37 325 48 525 49 230 1 314 -8 511 -58 271 -69 588 -232 829 -426 36 -29 56
-42 45 -30 -10 12 -60 53 -110 91 -331 251 -697 401 -1075 440 -109 11 -327
11 -445 -1z"/>
<path d="M7750 8746 c0 -2 7 -7 16 -10 8 -3 12 -2 9 4 -6 10 -25 14 -25 6z"/>
<path d="M4473 8661 c-44 -48 -153 -183 -187 -231 -21 -31 12 5 65 70 29 36
84 100 122 143 38 42 65 76 61 76 -5 -1 -32 -27 -61 -58z"/>
<path d="M4953 8660 c-13 -5 -23 -12 -23 -15 0 -9 16 -5 36 10 22 16 19 18
-13 5z"/>
<path d="M5668 8663 c6 -2 18 -2 25 0 6 3 1 5 -13 5 -14 0 -19 -2 -12 -5z"/>
<path d="M7165 8632 c6 -6 41 -27 79 -47 38 -21 99 -56 135 -79 89 -57 91 -58
91 -51 0 9 -163 111 -241 150 -41 21 -69 33 -64 27z"/>
<path d="M4425 8509 c-55 -64 -138 -189 -209 -311 -40 -71 -24 -58 20 15 46
75 127 187 206 283 32 39 58 74 58 77 0 18 -20 1 -75 -64z"/>
<path d="M7862 8509 c15 -13 51 -42 79 -64 89 -69 139 -119 144 -142 4 -25
165 -195 165 -175 0 7 -7 15 -15 18 -8 4 -15 10 -15 15 0 5 7 9 15 9 8 0 15 3
15 8 0 20 -229 225 -350 313 -50 36 -70 45 -38 18z"/>
<path d="M4873 8443 c-61 -60 -64 -64 -14 -19 98 88 106 96 100 96 -4 0 -42
-35 -86 -77z"/>
<path d="M4424 8417 c-80 -99 -156 -216 -148 -229 4 -6 3 -8 -4 -4 -6 4 -27
-21 -51 -62 -44 -73 -51 -92 -25 -71 13 11 12 5 -4 -28 -12 -23 -27 -45 -33
-48 -6 -4 -3 7 5 24 9 17 14 31 11 31 -10 0 -56 -101 -50 -110 4 -6 3 -20 0
-31 -5 -14 -10 -17 -14 -10 -4 6 -7 -4 -7 -23 0 -27 14 -6 76 119 77 155 165
296 228 366 13 15 24 33 25 40 2 8 13 31 26 52 37 61 19 52 -35 -16z"/>
<path d="M7510 8426 c0 -2 24 -21 53 -42 118 -87 300 -251 407 -369 68 -74 54
-54 -26 39 -65 76 -283 271 -376 336 -32 23 -58 39 -58 36z"/>
<path d="M4585 8320 c-3 -5 -2 -10 4 -10 5 0 13 5 16 10 3 6 2 10 -4 10 -5 0
-13 -4 -16 -10z"/>
<path d="M7555 8310 c10 -11 20 -20 23 -20 3 0 -3 9 -13 20 -10 11 -20 20 -23
20 -3 0 3 -9 13 -20z"/>
<path d="M4479 8187 c-57 -45 -242 -386 -309 -570 -64 -178 -122 -453 -119
-569 2 -49 2 -48 10 22 20 186 53 335 115 516 48 143 197 438 264 524 32 41
64 90 59 90 -2 0 -11 -6 -20 -13z"/>
<path d="M4303 8106 c-15 -25 -32 -46 -38 -46 -14 0 -115 -205 -115 -234 0
-12 -9 -33 -20 -46 -25 -29 -83 -211 -71 -223 5 -5 18 23 31 65 43 143 122
311 221 472 16 27 28 51 25 53 -3 3 -18 -15 -33 -41z"/>
<path d="M8284 8114 c4 -12 2 -15 -9 -10 -21 8 -19 -7 4 -28 13 -12 20 -14 23
-5 3 9 9 9 27 0 l23 -13 -23 31 c-25 34 -55 51 -45 25z"/>
<path d="M3863 7997 c-48 -94 -123 -276 -123 -294 1 -14 57 101 70 142 7 22
35 87 61 144 27 57 48 106 46 107 -2 2 -26 -43 -54 -99z"/>
<path d="M4125 8033 c-64 -115 -197 -484 -181 -501 3 -2 10 16 16 39 26 100
97 291 146 397 29 61 51 112 49 112 -2 0 -15 -21 -30 -47z"/>
<path d="M4330 8055 c-13 -14 -25 -32 -26 -40 -1 -8 -14 -29 -28 -46 -14 -17
-26 -36 -26 -42 0 -7 -10 -30 -21 -52 -158 -294 -247 -749 -219 -1126 45 -602
289 -1125 721 -1544 l114 -110 -121 125 c-266 275 -446 556 -562 875 -37 100
-95 316 -106 390 -2 17 -10 64 -17 105 -18 103 -18 508 0 620 30 191 77 357
153 539 36 88 57 130 137 274 18 31 31 57 28 57 -2 0 -14 -11 -27 -25z"/>
<path d="M4474 8038 c-4 -7 -14 -24 -22 -38 -14 -24 -13 -24 3 -5 20 24 37 55
31 55 -3 0 -8 -6 -12 -12z"/>
<path d="M3895 8009 c-4 -6 -5 -12 -2 -15 2 -3 7 2 10 11 7 17 1 20 -8 4z"/>
<path d="M4032 7985 c-17 -37 -14 -45 4 -12 9 16 14 31 11 33 -2 2 -9 -7 -15
-21z"/>
<path d="M3867 7945 c-24 -50 -20 -58 4 -12 11 22 19 41 17 43 -3 2 -12 -12
-21 -31z"/>
<path d="M3906 7925 c-9 -26 -7 -32 5 -12 6 10 9 21 6 23 -2 3 -7 -2 -11 -11z"/>
<path d="M3926 7902 c-24 -49 -57 -144 -52 -149 2 -2 12 20 21 49 10 29 26 70
37 91 11 22 18 41 15 43 -2 2 -12 -13 -21 -34z"/>
<path d="M8081 7870 c272 -373 412 -773 450 -1281 18 -256 -3 -439 -82 -707
-76 -255 -152 -415 -323 -679 -25 -39 -46 -77 -46 -83 0 -6 -4 -9 -9 -6 -5 3
-20 -9 -34 -27 -141 -185 -435 -435 -660 -562 -32 -18 -46 -30 -39 -37 10 -10
57 10 102 44 14 10 59 41 100 67 87 55 233 177 340 283 78 77 173 183 178 198
2 5 17 24 34 42 84 90 248 389 317 578 144 395 175 757 100 1190 -41 236 -117
463 -225 670 -69 132 -199 334 -235 366 -12 10 2 -15 32 -56z"/>
<path d="M4390 7900 c-6 -11 -8 -20 -6 -20 3 0 10 9 16 20 6 11 8 20 6 20 -3
0 -10 -9 -16 -20z"/>
<path d="M3832 7865 c-7 -14 -12 -31 -12 -38 1 -7 7 3 16 22 17 39 13 54 -4
16z"/>
<path d="M3886 7875 c-9 -26 -7 -32 5 -12 6 10 9 21 6 23 -2 3 -7 -2 -11 -11z"/>
<path d="M3970 7838 c-34 -95 -70 -203 -69 -212 0 -6 20 45 45 113 24 68 42
126 40 128 -2 2 -9 -11 -16 -29z"/>
<path d="M3856 7794 c-9 -26 -14 -49 -12 -51 2 -2 11 17 20 43 9 26 14 49 12
51 -2 2 -11 -17 -20 -43z"/>
<path d="M8650 7800 c6 -11 13 -20 16 -20 2 0 0 9 -6 20 -6 11 -13 20 -16 20
-2 0 0 -9 6 -20z"/>
<path d="M4050 7756 c-10 -30 -10 -40 0 -49 10 -9 11 -9 6 1 -4 7 -4 22 -1 33
6 17 9 19 16 8 11 -17 11 -1 0 26 -7 17 -10 14 -21 -19z"/>
<path d="M8670 7761 c0 -6 4 -13 10 -16 6 -3 7 1 4 9 -7 18 -14 21 -14 7z"/>
<path d="M8129 7745 c5 -11 17 -29 26 -40 l16 -20 -10 20 c-5 11 -17 29 -26
40 l-16 20 10 -20z"/>
<path d="M8460 7735 c0 -5 5 -17 10 -25 5 -8 10 -10 10 -5 0 6 -5 17 -10 25
-5 8 -10 11 -10 5z"/>
<path d="M8240 7718 c0 -4 23 -49 51 -100 70 -129 100 -200 158 -373 85 -256
126 -517 125 -805 0 -270 -26 -417 -126 -713 -48 -143 -59 -207 -19 -115 56
131 114 348 146 548 21 125 24 447 6 584 -35 268 -114 538 -220 762 -60 124
-121 231 -121 212z"/>
<path d="M4034 7681 c4 -5 1 -12 -4 -14 -6 -3 -5 -4 2 -3 15 3 23 26 8 26 -6
0 -9 -4 -6 -9z"/>
<path d="M8170 7676 c0 -10 51 -96 57 -96 3 0 -7 21 -23 48 -31 54 -34 58 -34
48z"/>
<path d="M8330 7671 c0 -6 4 -13 10 -16 6 -3 7 1 4 9 -7 18 -14 21 -14 7z"/>
<path d="M8721 7675 c0 -5 6 -21 14 -35 8 -14 14 -20 14 -15 0 6 -6 21 -14 35
-8 14 -14 21 -14 15z"/>
<path d="M8500 7661 c0 -6 4 -13 10 -16 6 -3 7 1 4 9 -7 18 -14 21 -14 7z"/>
<path d="M3706 7610 c-10 -30 -20 -62 -22 -70 -3 -10 -2 -11 4 -5 15 16 45
102 40 117 -3 7 -13 -12 -22 -42z"/>
<path d="M8772 7560 c11 -28 23 -49 25 -47 4 5 -34 97 -41 97 -3 0 5 -23 16
-50z"/>
<path d="M8289 7445 c26 -60 53 -121 60 -135 l11 -25 -6 25 c-9 36 -83 205
-99 226 -8 11 7 -30 34 -91z"/>
<path d="M3760 7500 c-15 -55 -7 -63 9 -9 7 22 10 43 7 46 -2 3 -10 -14 -16
-37z"/>
<path d="M4037 7500 c-12 -34 -28 -113 -23 -117 6 -7 38 107 33 120 -3 8 -7 7
-10 -3z"/>
<path d="M8800 7491 c0 -6 4 -13 10 -16 6 -3 7 1 4 9 -7 18 -14 21 -14 7z"/>
<path d="M4131 7344 c0 -11 3 -14 6 -6 3 7 2 16 -1 19 -3 4 -6 -2 -5 -13z"/>
<path d="M4122 7300 c0 -14 2 -19 5 -12 2 6 2 18 0 25 -3 6 -5 1 -5 -13z"/>
<path d="M8361 7274 c-1 -5 10 -41 23 -80 14 -38 25 -64 25 -58 1 5 -10 41
-23 80 -14 38 -25 64 -25 58z"/>
<path d="M8881 7264 c0 -11 3 -14 6 -6 3 7 2 16 -1 19 -3 4 -6 -2 -5 -13z"/>
<path d="M4112 7250 c0 -14 2 -19 5 -12 2 6 2 18 0 25 -3 6 -5 1 -5 -13z"/>
<path d="M8507 7253 c-3 -5 3 -20 14 -33 l20 -25 -6 25 c-9 30 -21 45 -28 33z"/>
<path d="M4102 7200 c0 -14 2 -19 5 -12 2 6 2 18 0 25 -3 6 -5 1 -5 -13z"/>
<path d="M4093 7125 c0 -27 2 -38 4 -22 2 15 2 37 0 50 -2 12 -4 0 -4 -28z"/>
<path d="M8414 7096 c3 -14 15 -64 26 -113 10 -48 24 -108 29 -133 l10 -45 -5
50 c-6 60 -54 265 -61 265 -3 0 -2 -11 1 -24z"/>
<path d="M8921 7104 c0 -11 3 -14 6 -6 3 7 2 16 -1 19 -3 4 -6 -2 -5 -13z"/>
<path d="M3972 7060 c0 -19 2 -27 5 -17 2 9 2 25 0 35 -3 9 -5 1 -5 -18z"/>
<path d="M8931 7064 c0 -11 3 -14 6 -6 3 7 2 16 -1 19 -3 4 -6 -2 -5 -13z"/>
<path d="M3582 7040 c0 -14 2 -19 5 -12 2 6 2 18 0 25 -3 6 -5 1 -5 -13z"/>
<path d="M4082 7025 c0 -16 2 -22 5 -12 2 9 2 23 0 30 -3 6 -5 -1 -5 -18z"/>
<path d="M3967 6864 c-2 -69 -1 -137 3 -152 5 -17 9 31 9 126 1 83 -1 152 -3
152 -1 0 -6 -57 -9 -126z"/>
<path d="M4044 6900 c0 -52 1 -74 3 -47 2 26 2 68 0 95 -2 26 -3 4 -3 -48z"/>
<path d="M3572 6940 c0 -14 2 -19 5 -12 2 6 2 18 0 25 -3 6 -5 1 -5 -13z"/>
<path d="M4072 6915 c0 -16 2 -22 5 -12 2 9 2 23 0 30 -3 6 -5 -1 -5 -18z"/>
<path d="M8903 6865 c0 -22 2 -30 4 -17 2 12 2 30 0 40 -3 9 -5 -1 -4 -23z"/>
<path d="M8606 6772 c4 -26 11 -48 15 -50 5 -2 10 -27 11 -55 1 -41 2 -45 5
-17 8 59 -7 158 -23 164 -13 5 -14 -2 -8 -42z"/>
<path d="M8483 6755 c0 -27 2 -38 4 -22 2 15 2 37 0 50 -2 12 -4 0 -4 -28z"/>
<path d="M4052 6765 c-1 -16 3 -72 8 -124 33 -311 148 -657 301 -907 28 -46
54 -84 56 -84 5 0 7 -3 -52 95 -144 239 -254 570 -290 875 -20 170 -22 182
-23 145z"/>
<path d="M4093 6670 c0 -25 2 -35 4 -22 2 12 2 32 0 45 -2 12 -4 2 -4 -23z"/>
<path d="M8492 6655 c0 -16 2 -22 5 -12 2 9 2 23 0 30 -3 6 -5 -1 -5 -18z"/>
<path d="M3986 6560 c4 -36 11 -72 16 -80 6 -10 7 8 3 50 -4 35 -11 71 -16 80
-6 10 -7 -8 -3 -50z"/>
<path d="M4103 6585 c0 -22 2 -30 4 -17 2 12 2 30 0 40 -3 9 -5 -1 -4 -23z"/>
<path d="M8501 6450 c-1 -196 -17 -305 -72 -500 -62 -218 -124 -361 -244 -565
-93 -158 -260 -376 -364 -473 -63 -60 -225 -191 -286 -232 -27 -18 -55 -38
-60 -44 -15 -15 -123 -73 -290 -156 -224 -109 -475 -186 -708 -215 -29 -4 -45
-10 -41 -17 7 -12 46 -7 229 29 506 98 1003 402 1340 818 237 293 391 621 475
1011 16 72 23 148 27 279 3 99 3 191 0 205 -2 14 -5 -49 -6 -140z"/>
<path d="M4112 6515 c0 -16 2 -22 5 -12 2 9 2 23 0 30 -3 6 -5 -1 -5 -18z"/>
<path d="M4122 6460 c0 -14 2 -19 5 -12 2 6 2 18 0 25 -3 6 -5 1 -5 -13z"/>
<path d="M4131 6414 c0 -11 3 -14 6 -6 3 7 2 16 -1 19 -3 4 -6 -2 -5 -13z"/>
<path d="M4021 6365 c0 -16 6 -39 14 -49 20 -27 20 -1 0 45 l-14 34 0 -30z"/>
<path d="M4142 6370 c0 -14 2 -19 5 -12 2 6 2 18 0 25 -3 6 -5 1 -5 -13z"/>
<path d="M8472 6335 c0 -16 2 -22 5 -12 2 9 2 23 0 30 -3 6 -5 -1 -5 -18z"/>
<path d="M4151 6324 c0 -11 3 -14 6 -6 3 7 2 16 -1 19 -3 4 -6 -2 -5 -13z"/>
<path d="M8632 6260 c0 -14 2 -19 5 -12 2 6 2 18 0 25 -3 6 -5 1 -5 -13z"/>
<path d="M8461 6244 c0 -11 3 -14 6 -6 3 7 2 16 -1 19 -3 4 -6 -2 -5 -13z"/>
<path d="M4181 6234 c-1 -5 10 -41 23 -80 14 -38 25 -64 25 -58 1 5 -10 41
-23 80 -14 38 -25 64 -25 58z"/>
<path d="M4081 6163 c7 -12 15 -20 18 -17 3 2 -3 12 -13 22 -17 16 -18 16 -5
-5z"/>
<path d="M4115 6055 c4 -16 11 -34 16 -39 15 -16 10 16 -7 44 l-15 25 6 -30z"/>
<path d="M8806 5794 c-4 -14 -5 -28 -3 -31 3 -2 8 8 11 23 4 14 5 28 3 31 -3
2 -8 -8 -11 -23z"/>
<path d="M8576 5754 c-4 -14 -5 -28 -3 -31 3 -2 8 8 11 23 4 14 5 28 3 31 -3
2 -8 -8 -11 -23z"/>
<path d="M8326 5745 c-9 -26 -7 -32 5 -12 6 10 9 21 6 23 -2 3 -7 -2 -11 -11z"/>
<path d="M8698 5708 c-8 -29 -29 -90 -46 -136 -17 -45 -27 -80 -23 -77 10 6
76 186 86 233 10 50 0 38 -17 -20z"/>
<path d="M8645 5698 c-8 -30 -29 -90 -45 -133 -17 -43 -29 -80 -26 -82 5 -5
58 133 80 208 9 29 14 54 12 57 -3 2 -12 -20 -21 -50z"/>
<path d="M8475 5642 c-40 -109 -40 -106 -27 -99 11 8 67 166 60 172 -2 2 -17
-31 -33 -73z"/>
<path d="M8262 5605 c-28 -58 -50 -105 -47 -105 7 0 107 201 103 206 -2 2 -27
-44 -56 -101z"/>
<path d="M8711 5664 c-6 -21 -9 -40 -7 -42 2 -2 9 13 16 33 7 20 10 39 7 42
-3 3 -10 -12 -16 -33z"/>
<path d="M8761 5663 c-1 -6 -4 -20 -7 -30 -5 -17 -5 -17 6 0 6 10 9 23 6 30
-3 9 -5 9 -5 0z"/>
<path d="M4321 5643 c7 -12 15 -20 18 -17 3 2 -3 12 -13 22 -17 16 -18 16 -5
-5z"/>
<path d="M8649 5497 c-41 -99 -44 -106 -30 -87 15 22 73 161 69 166 -3 2 -20
-33 -39 -79z"/>
<path d="M8693 5424 c-33 -73 -59 -134 -57 -134 11 0 129 258 122 266 -2 1
-31 -58 -65 -132z"/>
<path d="M4480 5546 c0 -2 8 -10 18 -17 15 -13 16 -12 3 4 -13 16 -21 21 -21
13z"/>
<path d="M3938 5514 c6 -11 18 -28 27 -39 15 -19 15 -18 1 12 -9 17 -21 35
-27 39 -8 4 -8 1 -1 -12z"/>
<path d="M8694 5484 c-28 -71 -28 -75 1 -21 14 27 25 53 23 59 -2 6 -13 -11
-24 -38z"/>
<path d="M4510 5506 c0 -2 8 -10 18 -17 15 -13 16 -12 3 4 -13 16 -21 21 -21
13z"/>
<path d="M8160 5418 c-152 -258 -370 -504 -586 -662 -99 -72 -271 -175 -394
-236 -249 -124 -501 -197 -810 -235 -87 -10 -96 -13 -49 -14 141 -3 472 66
669 140 182 69 438 213 602 340 234 181 440 419 587 682 47 83 31 70 -19 -15z"/>
<path d="M8556 5455 c-9 -26 -7 -32 5 -12 6 10 9 21 6 23 -2 3 -7 -2 -11 -11z"/>
<path d="M4490 5406 c0 -2 8 -10 18 -17 15 -13 16 -12 3 4 -13 16 -21 21 -21
13z"/>
<path d="M4020 5397 c0 -3 37 -52 82 -109 115 -145 228 -252 430 -411 67 -52
95 -54 35 -2 -22 19 -35 38 -32 47 4 9 -11 26 -39 46 -25 18 -96 83 -158 145
-62 62 -131 124 -153 138 -43 29 -96 76 -111 99 -11 18 -54 55 -54 47z"/>
<path d="M8596 5375 c-9 -26 -7 -32 5 -12 6 10 9 21 6 23 -2 3 -7 -2 -11 -11z"/>
<path d="M4690 5376 c0 -2 8 -10 18 -17 15 -13 16 -12 3 4 -13 16 -21 21 -21
13z"/>
<path d="M4836 5223 c195 -191 441 -351 700 -457 325 -133 627 -174 991 -134
73 7 136 17 140 22 4 5 -10 6 -32 2 -660 -99 -1281 100 -1807 580 -72 65 -72
65 8 -13z"/>
<path d="M8220 5250 c-6 -11 -8 -20 -6 -20 3 0 10 9 16 20 6 11 8 20 6 20 -3
0 -10 -9 -16 -20z"/>
<path d="M4815 5076 c196 -184 578 -390 907 -490 204 -62 498 -104 544 -78 18
11 17 11 -6 12 -14 0 -77 5 -140 11 -291 27 -550 109 -893 280 -154 78 -238
134 -427 285 -31 25 -27 19 15 -20z"/>
<path d="M4920 5116 c18 -23 175 -142 280 -213 122 -83 338 -183 509 -237 214
-68 508 -104 741 -92 212 12 165 26 -86 26 -240 0 -359 12 -526 51 -307 72
-627 233 -883 443 -27 22 -43 32 -35 22z"/>
<path d="M8123 5108 c-21 -27 -24 -38 -10 -32 8 3 17 14 20 25 6 22 3 24 -10
7z"/>
<path d="M8265 5083 c-38 -57 -162 -203 -252 -295 -52 -54 -91 -98 -87 -98 4
0 17 8 28 17 l21 18 -20 -25 c-75 -91 -57 -78 65 47 101 104 100 108 -5 13
-46 -41 -45 -39 11 20 74 78 236 276 253 308 16 30 7 28 -14 -5z"/>
<path d="M4919 5076 c14 -15 80 -65 148 -112 68 -47 123 -88 123 -90 0 -11
-24 0 -91 44 -94 61 -99 64 -99 59 0 -13 184 -127 200 -124 3 0 25 -11 50 -26
251 -147 663 -277 878 -277 42 0 115 -5 162 -10 88 -10 210 -4 210 11 0 5 -75
9 -167 9 -296 0 -561 53 -830 166 -133 55 -272 129 -341 180 -30 21 -102 74
-160 117 -59 44 -96 67 -83 53z"/>
<path d="M4717 5039 c7 -7 15 -10 18 -7 3 3 -2 9 -12 12 -14 6 -15 5 -6 -5z"/>
<path d="M4920 5036 c0 -2 14 -14 30 -26 17 -12 30 -19 30 -16 0 2 -13 14 -30
26 -16 12 -30 19 -30 16z"/>
<path d="M4813 5023 c9 -15 123 -100 217 -164 100 -67 391 -210 532 -262 149
-54 328 -99 488 -123 139 -20 414 -24 432 -6 9 9 -21 12 -138 12 -380 0 -749
96 -1129 294 -136 71 -256 146 -360 223 -27 21 -46 32 -42 26z"/>
<path d="M7765 4962 c-22 -20 -69 -63 -105 -95 -36 -32 -56 -54 -45 -48 21 11
204 180 195 180 -3 0 -23 -16 -45 -37z"/>
<path d="M8189 4943 c-14 -16 -31 -37 -39 -48 l-15 -20 24 20 c23 20 66 75 59
75 -3 0 -15 -12 -29 -27z"/>
<path d="M8213 4898 c-86 -108 -203 -227 -315 -320 -59 -50 -108 -91 -108 -93
0 -7 90 46 120 71 62 52 179 176 262 279 100 122 102 125 96 125 -2 0 -27 -28
-55 -62z"/>
<path d="M4880 4910 c0 -5 12 -17 28 -27 15 -9 52 -33 82 -52 30 -20 64 -41
75 -47 11 -6 54 -30 95 -54 267 -150 624 -265 900 -290 l85 -7 -73 -2 c-40 0
-106 4 -145 10 -198 30 -517 131 -709 224 -29 15 -69 33 -88 41 l-35 14 25
-20 c31 -26 155 -85 276 -133 220 -87 488 -148 659 -150 60 -1 95 -3 78 -5
-66 -7 -31 -17 44 -13 l78 4 -45 13 -45 14 50 -7 c66 -10 126 -8 205 4 63 10
62 10 -65 12 -376 4 -738 90 -1080 257 -192 94 -353 187 -369 213 -9 14 -26
14 -26 1z"/>
<path d="M7909 4863 l-34 -38 38 34 c34 33 42 41 34 41 -2 0 -19 -17 -38 -37z"/>
<path d="M7834 4788 l-29 -33 33 29 c17 17 32 31 32 33 0 8 -8 1 -36 -29z"/>
<path d="M7525 4768 c-52 -38 -57 -44 -20 -24 38 20 70 45 64 50 -2 2 -22 -10
-44 -26z"/>
<path d="M7831 4760 c-19 -16 -32 -32 -30 -35 3 -2 21 11 39 30 41 42 37 45
-9 5z"/>
<path d="M4700 4765 c0 -2 15 -12 33 -20 l32 -16 -24 21 c-22 19 -41 26 -41
15z"/>
<path d="M4819 4726 c10 -12 8 -13 -10 -9 -34 9 -15 -12 39 -42 83 -46 283
-132 397 -169 120 -39 339 -89 364 -83 9 2 -4 7 -29 11 -61 11 -275 79 -385
123 -49 19 -157 69 -239 109 -81 41 -143 67 -137 60z"/>
<path d="M7385 4676 c-114 -76 -312 -178 -438 -226 -123 -46 -346 -105 -427
-113 -63 -7 -56 -5 94 28 207 46 414 122 570 209 106 59 77 50 -56 -18 -133
-68 -347 -142 -498 -174 -52 -11 -120 -26 -150 -33 -30 -6 -140 -15 -245 -18
-141 -5 -177 -8 -140 -14 28 -4 120 -3 205 2 85 5 156 8 158 6 6 -6 -98 -18
-223 -26 l-130 -7 150 3 c271 7 568 78 830 197 103 48 259 136 326 184 25 19
48 31 51 29 3 -3 5 2 5 10 0 8 -1 15 -1 15 -1 0 -37 -24 -81 -54z"/>
<path d="M8115 4659 c-109 -111 -286 -251 -447 -352 -75 -47 -84 -56 -65 -61
34 -9 42 -7 68 15 13 11 62 48 109 81 72 52 406 367 390 368 -3 0 -28 -23 -55
-51z"/>
<path d="M5034 4692 c4 -8 0 -12 -11 -12 -37 -1 205 -110 357 -160 172 -57
470 -122 550 -119 14 0 -33 11 -105 23 -204 36 -423 104 -630 196 -66 30 -128
53 -138 52 -9 0 -15 3 -12 8 3 5 0 12 -6 16 -8 4 -9 3 -5 -4z"/>
<path d="M7324 4664 c-18 -14 -18 -15 4 -4 12 6 22 13 22 15 0 8 -5 6 -26 -11z"/>
<path d="M7274 4634 c-18 -14 -18 -15 4 -4 12 6 22 13 22 15 0 8 -5 6 -26 -11z"/>
<path d="M7483 4530 c-18 -11 -33 -22 -33 -25 0 -8 58 23 65 35 9 14 5 13 -32
-10z"/>
<path d="M7261 4466 c-22 -12 -22 -13 -4 -18 11 -3 33 1 49 8 l29 13 -29 -6
c-20 -4 -27 -3 -22 6 9 14 7 14 -23 -3z"/>
<path d="M7795 4460 c-16 -11 -25 -20 -19 -20 11 0 64 39 54 40 -3 0 -18 -9
-35 -20z"/>
<path d="M6498 4443 c7 -3 16 -2 19 1 4 3 -2 6 -13 5 -11 0 -14 -3 -6 -6z"/>
<path d="M5270 4430 c8 -5 22 -10 30 -10 13 0 13 1 0 10 -8 5 -22 10 -30 10
-13 0 -13 -1 0 -10z"/>
<path d="M5338 4413 c7 -3 16 -2 19 1 4 3 -2 6 -13 5 -11 0 -14 -3 -6 -6z"/>
<path d="M5638 4413 c7 -3 16 -2 19 1 4 3 -2 6 -13 5 -11 0 -14 -3 -6 -6z"/>
<path d="M7070 4374 c-47 -19 -119 -46 -160 -60 -41 -13 -91 -33 -110 -44 -35
-20 -35 -20 -5 -14 102 23 385 129 385 145 0 15 -22 10 -110 -27z"/>
<path d="M5403 4394 c10 -11 120 -34 157 -33 24 0 8 7 -50 19 -91 20 -117 24
-107 14z"/>
<path d="M6013 4393 c15 -2 39 -2 55 0 15 2 2 4 -28 4 -30 0 -43 -2 -27 -4z"/>
<path d="M7645 4350 c-3 -6 1 -7 9 -4 18 7 21 14 7 14 -6 0 -13 -4 -16 -10z"/>
<path d="M5668 4343 c7 -3 16 -2 19 1 4 3 -2 6 -13 5 -11 0 -14 -3 -6 -6z"/>
<path d="M5748 4333 c7 -3 16 -2 19 1 4 3 -2 6 -13 5 -11 0 -14 -3 -6 -6z"/>
<path d="M5843 4323 c9 -2 25 -2 35 0 9 3 1 5 -18 5 -19 0 -27 -2 -17 -5z"/>
<path d="M7045 4320 c-13 -6 -15 -9 -5 -9 8 0 22 4 30 9 18 12 2 12 -25 0z"/>
<path d="M6875 4260 c-13 -6 -15 -9 -5 -9 8 0 22 4 30 9 18 12 2 12 -25 0z"/>
<path d="M6628 4236 c-71 -10 -117 -26 -72 -26 30 1 154 26 161 33 3 4 2 6 -3
6 -5 -1 -44 -7 -86 -13z"/>
<path d="M6405 4210 c-11 -17 -5 -18 65 -10 36 4 51 8 34 9 -17 0 -45 4 -62 7
-18 4 -32 1 -37 -6z"/>
<path d="M6678 4183 c6 -2 18 -2 25 0 6 3 1 5 -13 5 -14 0 -19 -2 -12 -5z"/>
</g>
</svg>
